<?xml version="1.0" encoding="utf-8"?>
<!-- Generator: Adobe Illustrator 22.1.0, SVG Export Plug-In . SVG Version: 6.00 Build 0)  -->
<svg version="1.1" id="Layer_1" xmlns="http://www.w3.org/2000/svg" xmlns:xlink="http://www.w3.org/1999/xlink" x="0px" y="0px"
	 viewBox="0 0 257.8 80" style="enable-background:new 0 0 257.8 80;" xml:space="preserve">
<style type="text/css">
	.st0{fill:#E9E9E9;}
	.st1{clip-path:url(#SVGID_4_);fill:#E9E9E9;}
	.st2{clip-path:url(#SVGID_8_);fill:#E9E9E9;}
	.st3{clip-path:url(#SVGID_12_);fill:#E9E9E9;}
	.st4{clip-path:url(#SVGID_16_);fill:#E9E9E9;}
	.st5{clip-path:url(#SVGID_18_);fill:#E9E9E9;}
	.st6{clip-path:url(#SVGID_20_);fill:#E9E9E9;}
	.st7{clip-path:url(#SVGID_22_);fill:#E9E9E9;}
	.st8{clip-path:url(#SVGID_24_);fill:#E9E9E9;}
</style>
<g>
	<g>
		<path id="SVGID_1_" class="st0" d="M30.9,73.4c-7.7,0-13.8-2.7-18.3-7.9c-5.1-6-7.7-14.5-7.7-25.1c0-7.7,1.2-14.1,3.5-19.1
			c2.3-4.9,5.3-8.7,9-11.1s8.2-3.6,13.4-3.6c7.6,0,13.9,2.9,18.6,8.6c4.8,5.8,7.2,14.1,7.2,24.8c0,10.8-2.6,19.4-7.7,25.4
			C44.6,70.7,38.5,73.4,30.9,73.4 M30.9,16.7c-5.5,0-10.1,1.9-13.5,5.7c-3.5,3.8-5.2,9.7-5.2,17.5c0,7.7,1.8,13.6,5.4,17.4
			c3.6,3.9,8.1,5.9,13.4,5.9s9.8-2,13.3-5.8c3.5-3.9,5.3-9.8,5.3-17.7c0-7.7-1.7-13.6-5.1-17.3C40.9,18.6,36.4,16.7,30.9,16.7"/>
	</g>
	<g>
		<defs>
			<path id="SVGID_2_" d="M30.9,73.4c-7.7,0-13.8-2.7-18.3-7.9c-5.1-6-7.7-14.5-7.7-25.1c0-7.7,1.2-14.1,3.5-19.1
				c2.3-4.9,5.3-8.7,9-11.1s8.2-3.6,13.4-3.6c7.6,0,13.9,2.9,18.6,8.6c4.8,5.8,7.2,14.1,7.2,24.8c0,10.8-2.6,19.4-7.7,25.4
				C44.6,70.7,38.5,73.4,30.9,73.4 M30.9,16.7c-5.5,0-10.1,1.9-13.5,5.7c-3.5,3.8-5.2,9.7-5.2,17.5c0,7.7,1.8,13.6,5.4,17.4
				c3.6,3.9,8.1,5.9,13.4,5.9s9.8-2,13.3-5.8c3.5-3.9,5.3-9.8,5.3-17.7c0-7.7-1.7-13.6-5.1-17.3C40.9,18.6,36.4,16.7,30.9,16.7"/>
		</defs>
		<use xlink:href="#SVGID_2_"  style="overflow:visible;fill:#E9E9E9;"/>
		<clipPath id="SVGID_4_">
			<use xlink:href="#SVGID_2_"  style="overflow:visible;"/>
		</clipPath>
		<rect x="-5.1" y="-3.4" class="st1" width="71.8" height="86.8"/>
	</g>
</g>
<g>
	<g>
		<rect id="SVGID_3_" x="89.5" y="25.8" class="st0" width="9.3" height="46.5"/>
	</g>
	<g>
		<defs>
			<rect id="SVGID_6_" x="89.5" y="25.8" width="9.3" height="46.5"/>
		</defs>
		<use xlink:href="#SVGID_6_"  style="overflow:visible;fill:#E9E9E9;"/>
		<clipPath id="SVGID_8_">
			<use xlink:href="#SVGID_6_"  style="overflow:visible;"/>
		</clipPath>
		<rect x="79.5" y="15.8" class="st2" width="29.3" height="66.5"/>
	</g>
</g>
<g>
	<g>
		<path id="SVGID_5_" class="st0" d="M122.9,73.4c-5.6,0-10-1.9-13.1-5.6c-3.7-4.4-5.5-10.6-5.5-18.5c0-7.8,1.9-14.1,5.6-18.8
			c3.1-3.9,7.1-5.8,12-5.8c5.4,0,9.8,2,12.8,6c3.6,4.6,5.4,11.5,5.4,20.6v0.8h-26.2v0.6c0.1,3.9,1,7,2.7,9.1
			c1.8,2.2,3.9,3.3,6.5,3.3c3.5,0,5.9-2.3,7.2-6.7l9.2,1.9c-1.4,4.3-3.4,7.6-6.1,9.7C130.5,72.3,127,73.4,122.9,73.4 M122.5,33.2
			c-2.4,0-4.4,1.1-6.1,3.2c-1.6,2.1-2.4,5-2.4,8.7v0.6h16.9v-0.6c-0.1-3.8-0.9-6.8-2.5-8.8C126.8,34.2,124.8,33.2,122.5,33.2"/>
	</g>
	<g>
		<defs>
			<path id="SVGID_10_" d="M122.9,73.4c-5.6,0-10-1.9-13.1-5.6c-3.7-4.4-5.5-10.6-5.5-18.5c0-7.8,1.9-14.1,5.6-18.8
				c3.1-3.9,7.1-5.8,12-5.8c5.4,0,9.8,2,12.8,6c3.6,4.6,5.4,11.5,5.4,20.6v0.8h-26.2v0.6c0.1,3.9,1,7,2.7,9.1
				c1.8,2.2,3.9,3.3,6.5,3.3c3.5,0,5.9-2.3,7.2-6.7l9.2,1.9c-1.4,4.3-3.4,7.6-6.1,9.7C130.5,72.3,127,73.4,122.9,73.4 M122.5,33.2
				c-2.4,0-4.4,1.1-6.1,3.2c-1.6,2.1-2.4,5-2.4,8.7v0.6h16.9v-0.6c-0.1-3.8-0.9-6.8-2.5-8.8C126.8,34.2,124.8,33.2,122.5,33.2"/>
		</defs>
		<use xlink:href="#SVGID_10_"  style="overflow:visible;fill:#E9E9E9;"/>
		<clipPath id="SVGID_12_">
			<use xlink:href="#SVGID_10_"  style="overflow:visible;"/>
		</clipPath>
		<rect x="94.3" y="14.7" class="st3" width="55.8" height="68.7"/>
	</g>
</g>
<g>
	<g>
		<path id="SVGID_7_" class="st0" d="M170.8,72.3V48.5c0-5-0.2-8.2-0.6-9.9c-0.4-1.7-1.2-3.1-2.4-4.1s-2.5-1.4-4-1.4
			c-1.9,0-3.6,0.6-5.1,1.8s-2.6,2.9-3.2,5c-0.6,2-0.9,5.8-0.9,11.4v21h-9.3V25.8h8.5v8.4l1.1-1.7c1.7-2.6,3.6-4.6,5.7-5.9
			c2.1-1.3,4.4-1.9,6.9-1.9c2.9,0,5.4,0.8,7.4,2.2c2,1.5,3.4,3.4,4.2,5.8s1.2,5.9,1.2,10.5v29.1C180.3,72.3,170.8,72.3,170.8,72.3z"
			/>
	</g>
	<g>
		<defs>
			<path id="SVGID_14_" d="M170.8,72.3V48.5c0-5-0.2-8.2-0.6-9.9c-0.4-1.7-1.2-3.1-2.4-4.1s-2.5-1.4-4-1.4c-1.9,0-3.6,0.6-5.1,1.8
				s-2.6,2.9-3.2,5c-0.6,2-0.9,5.8-0.9,11.4v21h-9.3V25.8h8.5v8.4l1.1-1.7c1.7-2.6,3.6-4.6,5.7-5.9c2.1-1.3,4.4-1.9,6.9-1.9
				c2.9,0,5.4,0.8,7.4,2.2c2,1.5,3.4,3.4,4.2,5.8s1.2,5.9,1.2,10.5v29.1C180.3,72.3,170.8,72.3,170.8,72.3z"/>
		</defs>
		<use xlink:href="#SVGID_14_"  style="overflow:visible;fill:#E9E9E9;"/>
		<clipPath id="SVGID_16_">
			<use xlink:href="#SVGID_14_"  style="overflow:visible;"/>
		</clipPath>
		<rect x="135.2" y="14.7" class="st4" width="54.9" height="67.6"/>
	</g>
</g>
<g>
	<g>
		<path id="SVGID_9_" class="st0" d="M198.7,73.4c-2.5,0-4.5-0.6-6-1.8c-1.5-1.2-2.5-2.9-3-5.1c-0.4-1.7-0.6-5.2-0.6-10.5V34.7h-4.8
			v-8.9h4.8v-9.5l9.3-0.2v9.7h7.1v8.9h-7.1v19.8c0,5.7,0.2,7,0.3,7.4c0.5,1.5,1.6,2.2,3.2,2.2c0.9,0,2.1-0.3,3.7-0.9l0.8,8.6
			C204.1,72.9,201.5,73.4,198.7,73.4"/>
	</g>
	<g>
		<defs>
			<path id="SVGID_17_" d="M198.7,73.4c-2.5,0-4.5-0.6-6-1.8c-1.5-1.2-2.5-2.9-3-5.1c-0.4-1.7-0.6-5.2-0.6-10.5V34.7h-4.8v-8.9h4.8
				v-9.5l9.3-0.2v9.7h7.1v8.9h-7.1v19.8c0,5.7,0.2,7,0.3,7.4c0.5,1.5,1.6,2.2,3.2,2.2c0.9,0,2.1-0.3,3.7-0.9l0.8,8.6
				C204.1,72.9,201.5,73.4,198.7,73.4"/>
		</defs>
		<use xlink:href="#SVGID_17_"  style="overflow:visible;fill:#E9E9E9;"/>
		<clipPath id="SVGID_18_">
			<use xlink:href="#SVGID_17_"  style="overflow:visible;"/>
		</clipPath>
		<rect x="174.3" y="6.2" class="st5" width="42.1" height="77.2"/>
	</g>
</g>
<g>
	<g>
		<rect id="SVGID_11_" x="212.4" y="25.8" class="st0" width="9.3" height="46.5"/>
	</g>
	<g>
		<defs>
			<rect id="SVGID_19_" x="212.4" y="25.8" width="9.3" height="46.5"/>
		</defs>
		<use xlink:href="#SVGID_19_"  style="overflow:visible;fill:#E9E9E9;"/>
		<clipPath id="SVGID_20_">
			<use xlink:href="#SVGID_19_"  style="overflow:visible;"/>
		</clipPath>
		<rect x="202.4" y="15.8" class="st6" width="29.3" height="66.5"/>
	</g>
</g>
<g>
	<g>
		<path id="SVGID_13_" class="st0" d="M61.2,72.3V25.8h8.5v8.4c1.5-3.1,2.3-4.4,4-6c3.9-3.8,9.7-2.7,11.7-1.2l-2.8,9.4
			c-1.6-1.1-3.1-1.7-4.6-1.7c-1.6,0-3,0.6-4.3,1.8c-1.2,1.2-2,3.2-2.6,6.1c-0.5,2.8-0.7,8-0.7,15.5v14.1h-9.2V72.3z"/>
	</g>
	<g>
		<defs>
			<path id="SVGID_21_" d="M61.2,72.3V25.8h8.5v8.4c1.5-3.1,2.3-4.4,4-6c3.9-3.8,9.7-2.7,11.7-1.2l-2.8,9.4
				c-1.6-1.1-3.1-1.7-4.6-1.7c-1.6,0-3,0.6-4.3,1.8c-1.2,1.2-2,3.2-2.6,6.1c-0.5,2.8-0.7,8-0.7,15.5v14.1h-9.2V72.3z"/>
		</defs>
		<use xlink:href="#SVGID_21_"  style="overflow:visible;fill:#E9E9E9;"/>
		<clipPath id="SVGID_22_">
			<use xlink:href="#SVGID_21_"  style="overflow:visible;"/>
		</clipPath>
		<rect x="51.2" y="15.6" class="st7" width="44.2" height="66.7"/>
	</g>
</g>
<g>
	<g>
		<path id="SVGID_15_" class="st0" d="M228.6,72.3V25.8h8.5v8.4c1.5-3.1,2.3-4.4,4-6c3.9-3.8,9.7-2.7,11.7-1.2l-2.8,9.4
			c-1.6-1.1-3.1-1.7-4.6-1.7c-1.6,0-3,0.6-4.3,1.8c-1.2,1.2-2,3.2-2.6,6.1c-0.5,2.8-0.7,8-0.7,15.5v14.1h-9.2V72.3z"/>
	</g>
	<g>
		<defs>
			<path id="SVGID_23_" d="M228.6,72.3V25.8h8.5v8.4c1.5-3.1,2.3-4.4,4-6c3.9-3.8,9.7-2.7,11.7-1.2l-2.8,9.4
				c-1.6-1.1-3.1-1.7-4.6-1.7c-1.6,0-3,0.6-4.3,1.8c-1.2,1.2-2,3.2-2.6,6.1c-0.5,2.8-0.7,8-0.7,15.5v14.1h-9.2V72.3z"/>
		</defs>
		<use xlink:href="#SVGID_23_"  style="overflow:visible;fill:#E9E9E9;"/>
		<clipPath id="SVGID_24_">
			<use xlink:href="#SVGID_23_"  style="overflow:visible;"/>
		</clipPath>
		<rect x="218.6" y="15.6" class="st8" width="44.2" height="66.7"/>
	</g>
</g>
</svg>
